<mxfile host="app.diagrams.net" agent="Mozilla/5.0 (X11; Linux x86_64; rv:128.0) Gecko/20100101 Firefox/128.0" version="26.1.1">
  <diagram id="f106602c-feb2-e66a-4537-3a34d633f6aa" name="Page-1">
    <mxGraphModel dx="1674" dy="767" grid="1" gridSize="10" guides="1" tooltips="1" connect="1" arrows="1" fold="1" page="1" pageScale="1" pageWidth="1169" pageHeight="827" background="none" math="0" shadow="0">
      <root>
        <mxCell id="0" />
        <mxCell id="1" parent="0" />
        <mxCell id="Lif8JBEafslfNm7ranTe-1" value="&lt;div align=&quot;left&quot;&gt;&lt;font style=&quot;font-size: 24px;&quot;&gt;&lt;b&gt;Cloud Host&lt;/b&gt;&lt;/font&gt;&lt;/div&gt;" style="fillColor=#F6F6F6;strokeColor=none;shadow=0;gradientColor=none;fontSize=14;align=left;spacing=10;fontColor=#717171;9E9E9E;verticalAlign=top;spacingTop=-4;fontStyle=0;spacingLeft=40;html=1;" parent="1" vertex="1">
          <mxGeometry x="340" y="179" width="620" height="421" as="geometry" />
        </mxCell>
        <mxCell id="Lif8JBEafslfNm7ranTe-3" value="&lt;font style=&quot;font-size: 18px;&quot;&gt;Multiple&lt;br&gt;Clients&lt;br&gt;API Requests&lt;/font&gt;" style="rounded=1;absoluteArcSize=1;arcSize=2;html=1;strokeColor=none;gradientColor=none;shadow=0;dashed=0;fontSize=12;fontColor=#9E9E9E;align=left;verticalAlign=top;spacing=10;spacingTop=-4;fillColor=#F1F8E9;" parent="1" vertex="1">
          <mxGeometry x="190" y="220" width="130" height="200" as="geometry" />
        </mxCell>
        <mxCell id="Lif8JBEafslfNm7ranTe-4" value="&lt;font style=&quot;font-size: 36px;&quot;&gt;AI-powered Ticketing System&lt;/font&gt;" style="fillColor=#4DA1F5;strokeColor=none;shadow=1;gradientColor=none;fontSize=14;align=left;spacingLeft=50;fontColor=#ffffff;html=1;" parent="1" vertex="1">
          <mxGeometry x="180" y="110" width="780" height="50" as="geometry" />
        </mxCell>
        <mxCell id="Lif8JBEafslfNm7ranTe-8" style="edgeStyle=orthogonalEdgeStyle;rounded=0;elbow=vertical;html=1;labelBackgroundColor=none;startFill=1;startSize=4;endArrow=blockThin;endFill=1;endSize=4;jettySize=auto;orthogonalLoop=1;strokeColor=#4284F3;strokeWidth=2;fontSize=12;fontColor=#000000;align=left;dashed=0;entryX=0;entryY=0.5;entryDx=0;entryDy=0;exitX=1;exitY=0.5;exitDx=0;exitDy=0;" parent="1" target="cEKSAHbCaNsN3OeEtTBm-1" edge="1" source="Lif8JBEafslfNm7ranTe-3">
          <mxGeometry relative="1" as="geometry">
            <mxPoint x="330" y="325" as="sourcePoint" />
          </mxGeometry>
        </mxCell>
        <mxCell id="Lif8JBEafslfNm7ranTe-9" value="" style="strokeColor=#dddddd;fillColor=#ffffff;shadow=1;strokeWidth=1;rounded=1;absoluteArcSize=1;arcSize=2;labelPosition=center;verticalLabelPosition=middle;align=center;verticalAlign=bottom;spacingLeft=0;fontColor=#999999;fontSize=12;whiteSpace=wrap;spacingBottom=2;html=1;" parent="1" vertex="1">
          <mxGeometry x="210" y="310" width="80" height="85" as="geometry" />
        </mxCell>
        <mxCell id="Lif8JBEafslfNm7ranTe-10" value="" style="dashed=0;connectable=0;html=1;fillColor=#757575;strokeColor=none;shape=mxgraph.gcp2.laptop;part=1;" parent="Lif8JBEafslfNm7ranTe-9" vertex="1">
          <mxGeometry x="0.5" width="50" height="33" relative="1" as="geometry">
            <mxPoint x="-25" y="18.5" as="offset" />
          </mxGeometry>
        </mxCell>
        <mxCell id="I_3cgifyDoqQIbiuhMUD-14" style="edgeStyle=orthogonalEdgeStyle;rounded=0;orthogonalLoop=1;jettySize=auto;html=1;exitX=0.5;exitY=1;exitDx=0;exitDy=0;entryX=0.5;entryY=0;entryDx=0;entryDy=0;" edge="1" parent="1" source="cEKSAHbCaNsN3OeEtTBm-3" target="cEKSAHbCaNsN3OeEtTBm-7">
          <mxGeometry relative="1" as="geometry" />
        </mxCell>
        <mxCell id="cEKSAHbCaNsN3OeEtTBm-3" value="" style="strokeColor=#dddddd;shadow=1;strokeWidth=1;rounded=1;absoluteArcSize=1;arcSize=2;" parent="1" vertex="1">
          <mxGeometry x="630" y="310" width="285" height="60" as="geometry" />
        </mxCell>
        <mxCell id="cEKSAHbCaNsN3OeEtTBm-4" value="&lt;div&gt;&lt;span style=&quot;white-space: pre;&quot;&gt;&#x9;&lt;/span&gt;&lt;span style=&quot;white-space: pre;&quot;&gt;&#x9;&lt;/span&gt;&lt;font color=&quot;#000000&quot;&gt;X2Text Service&lt;/font&gt;&lt;/div&gt;&lt;span style=&quot;white-space: pre;&quot;&gt;&#x9;&lt;/span&gt;&lt;span style=&quot;white-space: pre;&quot;&gt;&#x9;&lt;/span&gt;PyTorch + OpenCV" style="editableCssRules=.*;html=1;fontColor=#999999;shape=image;verticalLabelPosition=middle;verticalAlign=middle;labelPosition=right;align=left;spacingLeft=20;part=1;points=[];imageAspect=0;image=https://encrypted-tbn0.gstatic.com/images?q=tbn:ANd9GcShDphNUlsNx_rJkHodtMWI2BjGiOJZvITapw&amp;s;" parent="cEKSAHbCaNsN3OeEtTBm-3" vertex="1">
          <mxGeometry width="30" height="36" relative="1" as="geometry">
            <mxPoint x="15" y="15" as="offset" />
          </mxGeometry>
        </mxCell>
        <mxCell id="I_3cgifyDoqQIbiuhMUD-8" value="" style="shape=image;imageAspect=0;aspect=fixed;verticalLabelPosition=bottom;verticalAlign=top;image=https://encrypted-tbn0.gstatic.com/images?q=tbn:ANd9GcQClb79qBQXaV-1_1G_Hw9ryFgsMCIY7ykO6A&amp;s;" vertex="1" parent="cEKSAHbCaNsN3OeEtTBm-3">
          <mxGeometry x="61.33" y="7.5" width="48.11" height="45" as="geometry" />
        </mxCell>
        <mxCell id="I_3cgifyDoqQIbiuhMUD-12" style="edgeStyle=orthogonalEdgeStyle;rounded=0;orthogonalLoop=1;jettySize=auto;html=1;exitX=0.5;exitY=1;exitDx=0;exitDy=0;entryX=0.5;entryY=0;entryDx=0;entryDy=0;" edge="1" parent="1" source="cEKSAHbCaNsN3OeEtTBm-5" target="cEKSAHbCaNsN3OeEtTBm-3">
          <mxGeometry relative="1" as="geometry" />
        </mxCell>
        <mxCell id="cEKSAHbCaNsN3OeEtTBm-5" value="" style="strokeColor=#dddddd;shadow=1;strokeWidth=1;rounded=1;absoluteArcSize=1;arcSize=2;" parent="1" vertex="1">
          <mxGeometry x="630" y="210" width="285" height="60" as="geometry" />
        </mxCell>
        <mxCell id="cEKSAHbCaNsN3OeEtTBm-6" value="&lt;div&gt;&lt;font color=&quot;#000000&quot;&gt;&lt;span style=&quot;white-space: pre;&quot;&gt;&#x9;&lt;/span&gt;&lt;span style=&quot;white-space: pre;&quot;&gt;&#x9;User Interface&lt;/span&gt;&lt;/font&gt;&lt;/div&gt;&lt;span style=&quot;white-space: pre;&quot;&gt;&#x9;&lt;/span&gt;&lt;span style=&quot;white-space: pre;&quot;&gt;&#x9;&lt;/span&gt;SpringBoot + ReactJS" style="editableCssRules=.*;html=1;fontColor=#999999;shape=image;verticalLabelPosition=middle;verticalAlign=middle;labelPosition=right;align=left;spacingLeft=20;part=1;points=[];imageAspect=0;image=data:image/webp,UklGRggRAABXRUJQVlA4TPwQAAAvuIAdAFXhlf9vmSU3938nmjnUMGfg8DBomJmZmWdEc57nff5PH12E7kGRYtbUq0wnW71hR6uJNBegSLU3IKaQM0WU7V/cqZhhIjEzRRQqYoqYddJHPJGYwRDzhAupqhZSydHW3oLfZFOzPb3mfMvRhmaG2Jko0qa6A7N9aiLVGTNjyBA60qlJHW5kZnYbt83HGYWihVCpmaJ/JkgVbU1odtcxzKlTjtgXoWgpczQ3sLG5M7e5TbttZo8gNbMdYuac/ZqmOmzzVJsZMkocCABgJv3/KxqPy7ZrzramJtkCAJBtdJ95r7NtLyjS1Lat2bZdt/NqO3X/J2BbiX8QRzqZRG7MSVAnJeetTkpJZIY2IxdZo2O2QRjz2n8+i4vocfmwQQjz3vBKLmGMX8xp6uwInwfZMT67oR3j5V1B2/VLijiPeXGKMNt29eQCRru51BzDgYl5kic1xxzt5uXb5mQ3WZxTeZJKFufrj7ekG/KNbSP53ylRMG+2fnpNySZFtZy2wY4ImFcf/TwTwqpcXY8et5OieRbaIdzl6JFqhJPJqMrno8xKyWXHhIyqYp5MLc3bJGEG5VV2TEwRF5KE6SR+ssgOcTKpGbMkmpcCFh0UlcdBSAnsSHpZ1Ew777h3dD64Wi7uzpPIjx9dHgz658lTq2dNASBKa0e4ShKl69H9apPjBtG24sbEuD70F69a5NsAoEuD3380aXpcPpPBAkrrzm7qNqNc128w3T2cLg3euPvlU5KxfimnbXRLY6RKtJFOlhjHB+WavaWYPO6cpn6cj8nR+eBeosuiktjx9ts3Yu778Lt1aXQbADvtHFIMs9OVslQPyuokqJ84c1p6tzToqZSlDbNTMjScHSQLs0oaG4TqDte3lWhwtF7ee+VRJU8qwXAnk8D0o7yBZvoVcfa6fSeyI0oaxARmYKiVgJfTMtgQXqbmxjVP3/vvDSyJYtlNPbiOe2cMYSoHRlIAUFIUNhVPc/2aT3EY5cn8VEmyMBO2gOD8TnsHsFFe/pJuGA5Kmp6aozdRz9qsHluZt/WGGyniXARWUSWJ2lg+7nJwX6X99rX2YK1iujOmYLgz66qRbg5Wu+1rCYKMhTru7GP/xUlxnSYnGhPD6jArVWe44dXh6EncRGP56KiTojoR3XnQJ5pRU5SYILCwzfoJ1Ag7U+igKASz6Nc3o1w77GzJYB6M7u+weaFcl2th3oQ9IMz1VodUu79ajgCD5ducHUwIK8TYUD4qUkAiDWf76+dG1OXgchIkBgFtANg9oH7PQBEC1JP56ebG1eS4Tqwj3ayDIAaM4E6+iJh73352aEMwBCzp9/gDMy4oZdXVIQDGN3Tc2Yh9UlRrNDv8fhix2v2V8WGFjQb/YmllsU8BCGU11ON9DEr7zasNQbo4T6z95oV4229thTDCGxHvCCddrchPgZASp/vabV6BnKlaSRBC4Yanw+aNuBeWCLEYGs6PuGjQJ1K1yAuLw1CVAneUm4fRRDktVOICaxD3S/9SQIjK7VpzJgRlLhrwClUpcOLi0Nt4fgRihJ2qmG63UPhDN1PPiX9cUE6vSEIwoiuehY/6PwMeQ5xVIdU03E5BqNG1+FC08tYerG6qQdeDK4mbRBgYaaZdLuKjzntnAjciDm0IV71jAtD97JuPwv85rSIZbqeJf4xXsEHQgOIkpPKLaEANZ4dbK2Ho7n7yCtsws66OCTNSs4yB7wjxP8n8KEJBrJBqbrt+Wo5vqVq9pX8GkF6Vj3CyotqtnyMoWt2ww9ZG/G1WTwcNISAMbDTWx7ho4Cdy+6AwDDyboNFePhoVpabltPTE30g+CUQRlOnPamjH+xgXtV09Jgtz4gw7gh8ops5wLQWCTkoWHQ2PcnNct6472vLrKMxiQ/RVzjI346KqJX5MGM6p2bUI6fcKJLKjKFr/2A7bN+K9fN3hRiFya6F40FetKBj6S3AN+cU+tkCYmv4HAqb+jB3hhcWyW/ox/wJXveFmIcqA0zLqqtFujqf44l5h6M5pm6Zq1+ngmqMLsxPiDxNvC+O6DOXA961a4PHQ4E+0SpHnEYblnfZOzVZ/8RCKDh2ceO+VAhZQFlVSf7S5HAe1MG994uLVSsLbarWDZH5GiXJKlIqZnj73H56B73BqnvUW0iCGO25tPKO83O0LhKnC1TQa7eWS+AkTRb9F1QKHeLechhJ5KhfYw+w0BzWRjwPC0EnQRH7sNbTJamhiKDyRn+h29vG0NK6TuHElE9oAUKNtfDWO8UEpId0tDt1ZdZUm3S8fNoRH4fG0suiDOG7rR43BOCVKRaa/y8HJQY8+RxyWXkWDo1bvmGPiIs21y2K29RtMdmNwLG0wmpqj35qjz/1vOgB3dlP3QL5NUoQ5FB6slKX3vv8Qe5/7rxWEozTCf57FMcorZNZVbnHobbt+5hrupPWouPgjTQwrbBOiav3JTgSlc2DC3HXZNp3lB2B8+VArydNgslOkxJU2Vc6Ifcgv7iuQD8sXslHP65dlilOROoNVjqG/+HEQYKDP08/RXLsoUS6gtHrbMNbH2F4joyr3iEN8yEHfKFNxRk3pAWDaIUyciZleE12A2mpvbFRntOmG4MDI3ElRleX0HhPAP9fsmDl6378T2CHLFWCk0fyI415hCPr8DjsbwwO3dKN4lcRPrcHx6G50CQ6Kvj3HgyMQ0J1RlY1ys7m1XNzNQAgJmd7nZJsQlH7EAGVpZ1VMd63JRkU6BCxroV/lMi+RGzEhmDawuJjt8S9pglLaYdFZOdLLYjsmgjATmcHhVmpK1y5HiPHMmnwqW7v1Sym6iPgBOO5ZDgJtEK7ZtU6h9+27VAcRXmdiVGNrLJ/YAOAqjKolwfiwzPY636tAYHglIrr8r8cQpHdWMdNRa/WWD+cqgpXznMHfOFuv69dxgLh3OtbHiJ7SMEGosvY7GzGvnllXxV2FaT0l2+BvLCHTB8S0Y8JKtFxT9TyAMGZ3O3nZTlylwIu6Coz/MttmidwoAg0sOylunKBqgesBcpRe12+2A+oOirqMcOvVI9tuZ5hAZlbJs08wzEomssMItKTX/Zet7zNgA4DpMmwA3AvbOB+zifNBIGrBkF9ipekKhh75NLY+D39Ah2WJ+Oem2iXbOL8030FQKNPP39K8CSBMM/yebL0f/hKEpUSEm6jnbIsrUdQAgoEW+uWT+oCgt/f9l+09/0kXMe21ePZYJmZZtquFDg/F12C6V7u//O1QCnvdftj6PfxhU4RxIJ51fChy2lnZxgYlm7gQhGLD+Nq9pRodsxuImt3z/sM24B22Di/CSkj3DPnE2BYfLCgk3Hr5wLEeGDtBspuaR/52KEfpfHSzrbm2AyMi0LP25KjO9KBSFPoWv8y22T8gVBsmnGhzH5SyD2fbLKuhCQlBX8P54YSwyrAwGhRiVqKUu7GdOCHTr6CUfmEz9cwPBCPN9Ov1mQ5Tq79aKqbAgQivP8rJ5NJYPkYPCi1IzbHWYut9/VoaTHlT5bTbyXMnBST8+hOjGhM1Uc6miUHTjnDljWYH/V+hn37goE901u3DQRRr3OVZ2Nb4Xijq/brsnUO+8QUI9C3SysKpbAvdghDRv1WFTEeFdHtFps9roOjQzxB7veF6GKEksIPLjPYKvxEFonu3Zvvq1zaFoVOiWJaF4ks25jhHHIqBD1yt3njbBgAgKoEZHPyNsj1L1ZLQEAfTqpBqGW4l2db36lCW1Bttr0aX+VgdBn5WK/OGjeqPtz/WNURDxD7wFfIjmG5HL9FPZzbUISDu7JaO4xbPa7kCVbQqxylKocQz68rXIKJ2q6clQMwUCHBQsjAVdAX4H2fhqNVfcUNZcg3a3vSaIgYDyx+fo9Xi7nuVC5i2zlS2YXYqrSKLAsn/HJriry8NpPRBHOvmG/LpX97l5CX2ridfvgnkOF80Jao32fEqEPlZDc1SbJPi+m688oUOPsbLs730rv0IUhW9PuV6kyp5tgeEk5D0HtcvNhrwDlXOsaLSfey9iP1X00rCt4Ax82Anzo3e1AcCI021i5dmo2V9ssXvQpwr3UDBCM8mxrE+llaRGiA8p/5VjiXm4SXb3R/wZDe110KQRrWyeOy/wEJdju7/cUoUCJjEjT8WB/1whUynJZNKFqbrjLYWcbxGRaYXQarpxyP284RBzHQS5KU5qN54KyLTtb5pQ+KsM1gLw/jn+xHnWnYIBSFYCezwZXh+Or0qi8mjz+z9+CXOIZ+oboII2iH4szyTE/+etUwBQE9GRTYpqnHQp8VNWazveSjibayc+BCiepSm6tn6PHTbo8choG9jHrp+IjdeIEmgdn+ZeN/KMkDE08qSoVaS+DvuHD4QoQ9cnYdexG9IYQNArf7yKjz7rjNc8zspGWR4IWm4yufEIaC/pXFzB55FZ/3KAgkeLadt3Jp477YegnRg5C6raUFfVCHdpiAUeJ+Th6i5flUShKZ7zzMxqhK3OwrC+os+j1/StsF42w8B4wdajos67u35MVhG+J7EvehWYQTprzvaJI2fs3KeNRMCBnbMRz0vn9WKwhQAWoCidkR4tlX4duExQURTs/QTa0UtjBsviALj0/joth9zHBOKHknmJ3+zmLh/+snnI8iSW5LmY/9YZl31FhAwdM61+Ijarp8uGXZQFESpZ/M7E/+OMqqyaQjSk15T3l876nH2zQChync1PihrQMPs1Pvnl4u7VlnN3vKfk4aL/vsoFoyH7nrykMj0qrQUAlrfeystaLnfrDNYP4pfF/LtS2dW5W88zi+Rlu1WzxGEaceEtIqYhA61EkuDQIw0UU61IFpu6C/x+o8WjkV1TRyU5C4tz6opv/PVSNPrh4NAFqwlpvhcARh6WTP1fH0tiOjWHTav176LL1lc+Oeo2l5UqJRSQbffn5qlVe9YbnlH0vgv/8FAmJFm2kWxGBpmpdJKojgINB+liXqmEVHx3K4n717q9FdTJeonv8vs7w1EIinCvPeJH3Kr/F01lk9O3+/hvxBp3fPykSRMHR5hel5xiJUk0bPCMND8rMbKqVZEVHzgDxpqpfo//ZfZQ1PtvLF83Hh+eOE9dNjZelw/H3aEmxvzL+6btO98cH28gUBtAHwaEr6tuJ5RU8RhIJY9zAdpBnhSWD3F9wQRaPzdNxVH/R/+v4eCRR+/jGxj/8UTLkCo1t8/PkE8kV8BUSkQrJrnrCTXbWt0zBEFxgahnJaeQA61kg5CjAJB9AQaycdHlWfRX+a7Eaxhg+BNYCxqtbz/WDCoP/GKA97hn5Bk3QbTvb8IIlwbAGYVw6ANP9MDBq1YfDej3ZwMk6PaGndJAYCFcD2fM4+g7jECB9E43ME+HF7fx29aSeyOI+TAvQhuRlVeCgjRSUh3uuRV7g9p6ndm1JUJzJADIwg69P8E+Bbr6ZBQ2TExkRvLqMj2c18oY32s2/m93mhzwbUQeBI3NuAVhHSH9y9UkBDRjgg2ANzlo/u9ghC2bqlffZMnjMCVt/5oe3Jch0RDreSL2wkRGKJRWmJHcGP5eNA7MtYvTYpq2i23eN7vvHgSO2YDkMdE6J6nH/KLE+yNY+AQMRj4+7UbzQ+/4NPuuJhvqeF2pv8z8HVN1NOMmnz2DDtBUEZf6+UDAb/1K3gkQLQ+vrwkml6R1ewuvebF79X14O51+9rb3MG/xO7nLtPv6e929DzzuTaq2VvKrCkvWZgiLoZQoYwOjFQt8Mf6GDR6wYqZPiXD9poed/ifQx6PWYmQzYL7mQ5CioZ8YXe+gbKqrVYi+FvMkWXKum5OWUe5P3ZLkvDBDooYUrnK4PyflWHTWf7tA/znKhYA;" parent="cEKSAHbCaNsN3OeEtTBm-5" vertex="1">
          <mxGeometry width="37" height="30" relative="1" as="geometry">
            <mxPoint x="15" y="18" as="offset" />
          </mxGeometry>
        </mxCell>
        <mxCell id="I_3cgifyDoqQIbiuhMUD-6" value="" style="shape=image;imageAspect=0;aspect=fixed;verticalLabelPosition=bottom;verticalAlign=top;image=https://encrypted-tbn0.gstatic.com/images?q=tbn:ANd9GcSlGmKtrnxElpqw3AExKXPWWBulcwjlvDJa1Q&amp;s;" vertex="1" parent="cEKSAHbCaNsN3OeEtTBm-5">
          <mxGeometry x="65" y="10" width="46.12" height="40" as="geometry" />
        </mxCell>
        <mxCell id="I_3cgifyDoqQIbiuhMUD-17" style="edgeStyle=orthogonalEdgeStyle;rounded=0;orthogonalLoop=1;jettySize=auto;html=1;exitX=1;exitY=0.5;exitDx=0;exitDy=0;entryX=0;entryY=0.5;entryDx=0;entryDy=0;" edge="1" parent="1" source="cEKSAHbCaNsN3OeEtTBm-7" target="I_3cgifyDoqQIbiuhMUD-15">
          <mxGeometry relative="1" as="geometry" />
        </mxCell>
        <mxCell id="I_3cgifyDoqQIbiuhMUD-21" style="edgeStyle=elbowEdgeStyle;rounded=0;orthogonalLoop=1;jettySize=auto;html=1;exitX=0.5;exitY=1;exitDx=0;exitDy=0;elbow=vertical;" edge="1" parent="1" source="cEKSAHbCaNsN3OeEtTBm-7" target="I_3cgifyDoqQIbiuhMUD-19">
          <mxGeometry relative="1" as="geometry" />
        </mxCell>
        <mxCell id="I_3cgifyDoqQIbiuhMUD-27" style="edgeStyle=orthogonalEdgeStyle;rounded=0;orthogonalLoop=1;jettySize=auto;html=1;exitX=0;exitY=0.5;exitDx=0;exitDy=0;entryX=0.175;entryY=0.967;entryDx=0;entryDy=0;entryPerimeter=0;" edge="1" parent="1" source="cEKSAHbCaNsN3OeEtTBm-7" target="cEKSAHbCaNsN3OeEtTBm-5">
          <mxGeometry relative="1" as="geometry">
            <Array as="points">
              <mxPoint x="580" y="435" />
              <mxPoint x="580" y="290" />
              <mxPoint x="680" y="290" />
            </Array>
          </mxGeometry>
        </mxCell>
        <mxCell id="cEKSAHbCaNsN3OeEtTBm-7" value="" style="strokeColor=#dddddd;shadow=1;strokeWidth=1;rounded=1;absoluteArcSize=1;arcSize=2;" parent="1" vertex="1">
          <mxGeometry x="595" y="405" width="285" height="60" as="geometry" />
        </mxCell>
        <mxCell id="I_3cgifyDoqQIbiuhMUD-3" style="edgeStyle=orthogonalEdgeStyle;rounded=0;orthogonalLoop=1;jettySize=auto;html=1;exitX=1;exitY=0.5;exitDx=0;exitDy=0;entryX=0;entryY=0.5;entryDx=0;entryDy=0;" edge="1" parent="1" source="cEKSAHbCaNsN3OeEtTBm-1" target="cEKSAHbCaNsN3OeEtTBm-5">
          <mxGeometry relative="1" as="geometry">
            <Array as="points">
              <mxPoint x="570" y="280" />
              <mxPoint x="580" y="280" />
              <mxPoint x="580" y="240" />
            </Array>
          </mxGeometry>
        </mxCell>
        <mxCell id="cEKSAHbCaNsN3OeEtTBm-1" value="" style="strokeColor=#dddddd;shadow=1;strokeWidth=1;rounded=1;absoluteArcSize=1;arcSize=2;" parent="1" vertex="1">
          <mxGeometry x="380" y="240" width="190" height="60" as="geometry" />
        </mxCell>
        <mxCell id="cEKSAHbCaNsN3OeEtTBm-2" value="&lt;div&gt;&lt;font color=&quot;#000000&quot;&gt;NGINX&lt;/font&gt;&lt;/div&gt;&lt;div&gt;Reverse-proxy + Load&lt;/div&gt;&lt;div&gt;Balancer&lt;br&gt;&lt;/div&gt;" style="editableCssRules=.*;html=1;fontColor=#999999;shape=image;verticalLabelPosition=middle;verticalAlign=middle;labelPosition=right;align=left;spacingLeft=20;part=1;points=[];imageAspect=0;image=https://www.svgrepo.com/show/373924/nginx.svg;" parent="cEKSAHbCaNsN3OeEtTBm-1" vertex="1">
          <mxGeometry width="30" height="30" relative="1" as="geometry">
            <mxPoint x="15" y="15" as="offset" />
          </mxGeometry>
        </mxCell>
        <mxCell id="I_3cgifyDoqQIbiuhMUD-1" style="edgeStyle=orthogonalEdgeStyle;rounded=0;orthogonalLoop=1;jettySize=auto;html=1;exitX=0.5;exitY=1;exitDx=0;exitDy=0;" edge="1" parent="1" source="Lif8JBEafslfNm7ranTe-3" target="Lif8JBEafslfNm7ranTe-3">
          <mxGeometry relative="1" as="geometry" />
        </mxCell>
        <mxCell id="I_3cgifyDoqQIbiuhMUD-9" value="" style="strokeColor=#dddddd;shadow=1;strokeWidth=1;rounded=1;absoluteArcSize=1;arcSize=2;" vertex="1" parent="1">
          <mxGeometry x="360" y="520" width="160" height="60" as="geometry" />
        </mxCell>
        <mxCell id="I_3cgifyDoqQIbiuhMUD-10" value="&lt;div&gt;&lt;font color=&quot;#000000&quot;&gt;Message Broker&lt;br&gt;&lt;/font&gt;&lt;/div&gt;RabbitMQ" style="editableCssRules=.*;html=1;fontColor=#999999;shape=image;verticalLabelPosition=middle;verticalAlign=middle;labelPosition=right;align=left;spacingLeft=20;part=1;points=[];imageAspect=0;image=https://www.rabbitmq.com/img/rabbitmq-logo.svg;" vertex="1" parent="I_3cgifyDoqQIbiuhMUD-9">
          <mxGeometry width="30" height="30" relative="1" as="geometry">
            <mxPoint x="15" y="15" as="offset" />
          </mxGeometry>
        </mxCell>
        <mxCell id="I_3cgifyDoqQIbiuhMUD-13" value="&lt;div&gt;&lt;font color=&quot;#000000&quot;&gt;Ticket Management Service&lt;br&gt;&lt;/font&gt;&lt;/div&gt;SpringBoot" style="editableCssRules=.*;html=1;fontColor=#999999;shape=image;verticalLabelPosition=middle;verticalAlign=middle;labelPosition=right;align=left;spacingLeft=20;part=1;points=[];imageAspect=0;image=data:image/webp,UklGRggRAABXRUJQVlA4TPwQAAAvuIAdAFXhlf9vmSU3938nmjnUMGfg8DBomJmZmWdEc57nff5PH12E7kGRYtbUq0wnW71hR6uJNBegSLU3IKaQM0WU7V/cqZhhIjEzRRQqYoqYddJHPJGYwRDzhAupqhZSydHW3oLfZFOzPb3mfMvRhmaG2Jko0qa6A7N9aiLVGTNjyBA60qlJHW5kZnYbt83HGYWihVCpmaJ/JkgVbU1odtcxzKlTjtgXoWgpczQ3sLG5M7e5TbttZo8gNbMdYuac/ZqmOmzzVJsZMkocCABgJv3/KxqPy7ZrzramJtkCAJBtdJ95r7NtLyjS1Lat2bZdt/NqO3X/J2BbiX8QRzqZRG7MSVAnJeetTkpJZIY2IxdZo2O2QRjz2n8+i4vocfmwQQjz3vBKLmGMX8xp6uwInwfZMT67oR3j5V1B2/VLijiPeXGKMNt29eQCRru51BzDgYl5kic1xxzt5uXb5mQ3WZxTeZJKFufrj7ekG/KNbSP53ylRMG+2fnpNySZFtZy2wY4ImFcf/TwTwqpcXY8et5OieRbaIdzl6JFqhJPJqMrno8xKyWXHhIyqYp5MLc3bJGEG5VV2TEwRF5KE6SR+ssgOcTKpGbMkmpcCFh0UlcdBSAnsSHpZ1Ew777h3dD64Wi7uzpPIjx9dHgz658lTq2dNASBKa0e4ShKl69H9apPjBtG24sbEuD70F69a5NsAoEuD3380aXpcPpPBAkrrzm7qNqNc128w3T2cLg3euPvlU5KxfimnbXRLY6RKtJFOlhjHB+WavaWYPO6cpn6cj8nR+eBeosuiktjx9ts3Yu778Lt1aXQbADvtHFIMs9OVslQPyuokqJ84c1p6tzToqZSlDbNTMjScHSQLs0oaG4TqDte3lWhwtF7ee+VRJU8qwXAnk8D0o7yBZvoVcfa6fSeyI0oaxARmYKiVgJfTMtgQXqbmxjVP3/vvDSyJYtlNPbiOe2cMYSoHRlIAUFIUNhVPc/2aT3EY5cn8VEmyMBO2gOD8TnsHsFFe/pJuGA5Kmp6aozdRz9qsHluZt/WGGyniXARWUSWJ2lg+7nJwX6X99rX2YK1iujOmYLgz66qRbg5Wu+1rCYKMhTru7GP/xUlxnSYnGhPD6jArVWe44dXh6EncRGP56KiTojoR3XnQJ5pRU5SYILCwzfoJ1Ag7U+igKASz6Nc3o1w77GzJYB6M7u+weaFcl2th3oQ9IMz1VodUu79ajgCD5ducHUwIK8TYUD4qUkAiDWf76+dG1OXgchIkBgFtANg9oH7PQBEC1JP56ebG1eS4Tqwj3ayDIAaM4E6+iJh73352aEMwBCzp9/gDMy4oZdXVIQDGN3Tc2Yh9UlRrNDv8fhix2v2V8WGFjQb/YmllsU8BCGU11ON9DEr7zasNQbo4T6z95oV4229thTDCGxHvCCddrchPgZASp/vabV6BnKlaSRBC4Yanw+aNuBeWCLEYGs6PuGjQJ1K1yAuLw1CVAneUm4fRRDktVOICaxD3S/9SQIjK7VpzJgRlLhrwClUpcOLi0Nt4fgRihJ2qmG63UPhDN1PPiX9cUE6vSEIwoiuehY/6PwMeQ5xVIdU03E5BqNG1+FC08tYerG6qQdeDK4mbRBgYaaZdLuKjzntnAjciDm0IV71jAtD97JuPwv85rSIZbqeJf4xXsEHQgOIkpPKLaEANZ4dbK2Ho7n7yCtsws66OCTNSs4yB7wjxP8n8KEJBrJBqbrt+Wo5vqVq9pX8GkF6Vj3CyotqtnyMoWt2ww9ZG/G1WTwcNISAMbDTWx7ho4Cdy+6AwDDyboNFePhoVpabltPTE30g+CUQRlOnPamjH+xgXtV09Jgtz4gw7gh8ops5wLQWCTkoWHQ2PcnNct6472vLrKMxiQ/RVzjI346KqJX5MGM6p2bUI6fcKJLKjKFr/2A7bN+K9fN3hRiFya6F40FetKBj6S3AN+cU+tkCYmv4HAqb+jB3hhcWyW/ox/wJXveFmIcqA0zLqqtFujqf44l5h6M5pm6Zq1+ngmqMLsxPiDxNvC+O6DOXA961a4PHQ4E+0SpHnEYblnfZOzVZ/8RCKDh2ceO+VAhZQFlVSf7S5HAe1MG994uLVSsLbarWDZH5GiXJKlIqZnj73H56B73BqnvUW0iCGO25tPKO83O0LhKnC1TQa7eWS+AkTRb9F1QKHeLechhJ5KhfYw+w0BzWRjwPC0EnQRH7sNbTJamhiKDyRn+h29vG0NK6TuHElE9oAUKNtfDWO8UEpId0tDt1ZdZUm3S8fNoRH4fG0suiDOG7rR43BOCVKRaa/y8HJQY8+RxyWXkWDo1bvmGPiIs21y2K29RtMdmNwLG0wmpqj35qjz/1vOgB3dlP3QL5NUoQ5FB6slKX3vv8Qe5/7rxWEozTCf57FMcorZNZVbnHobbt+5hrupPWouPgjTQwrbBOiav3JTgSlc2DC3HXZNp3lB2B8+VArydNgslOkxJU2Vc6Ifcgv7iuQD8sXslHP65dlilOROoNVjqG/+HEQYKDP08/RXLsoUS6gtHrbMNbH2F4joyr3iEN8yEHfKFNxRk3pAWDaIUyciZleE12A2mpvbFRntOmG4MDI3ElRleX0HhPAP9fsmDl6378T2CHLFWCk0fyI415hCPr8DjsbwwO3dKN4lcRPrcHx6G50CQ6Kvj3HgyMQ0J1RlY1ys7m1XNzNQAgJmd7nZJsQlH7EAGVpZ1VMd63JRkU6BCxroV/lMi+RGzEhmDawuJjt8S9pglLaYdFZOdLLYjsmgjATmcHhVmpK1y5HiPHMmnwqW7v1Sym6iPgBOO5ZDgJtEK7ZtU6h9+27VAcRXmdiVGNrLJ/YAOAqjKolwfiwzPY636tAYHglIrr8r8cQpHdWMdNRa/WWD+cqgpXznMHfOFuv69dxgLh3OtbHiJ7SMEGosvY7GzGvnllXxV2FaT0l2+BvLCHTB8S0Y8JKtFxT9TyAMGZ3O3nZTlylwIu6Coz/MttmidwoAg0sOylunKBqgesBcpRe12+2A+oOirqMcOvVI9tuZ5hAZlbJs08wzEomssMItKTX/Zet7zNgA4DpMmwA3AvbOB+zifNBIGrBkF9ipekKhh75NLY+D39Ah2WJ+Oem2iXbOL8030FQKNPP39K8CSBMM/yebL0f/hKEpUSEm6jnbIsrUdQAgoEW+uWT+oCgt/f9l+09/0kXMe21ePZYJmZZtquFDg/F12C6V7u//O1QCnvdftj6PfxhU4RxIJ51fChy2lnZxgYlm7gQhGLD+Nq9pRodsxuImt3z/sM24B22Di/CSkj3DPnE2BYfLCgk3Hr5wLEeGDtBspuaR/52KEfpfHSzrbm2AyMi0LP25KjO9KBSFPoWv8y22T8gVBsmnGhzH5SyD2fbLKuhCQlBX8P54YSwyrAwGhRiVqKUu7GdOCHTr6CUfmEz9cwPBCPN9Ov1mQ5Tq79aKqbAgQivP8rJ5NJYPkYPCi1IzbHWYut9/VoaTHlT5bTbyXMnBST8+hOjGhM1Uc6miUHTjnDljWYH/V+hn37goE901u3DQRRr3OVZ2Nb4Xijq/brsnUO+8QUI9C3SysKpbAvdghDRv1WFTEeFdHtFps9roOjQzxB7veF6GKEksIPLjPYKvxEFonu3Zvvq1zaFoVOiWJaF4ks25jhHHIqBD1yt3njbBgAgKoEZHPyNsj1L1ZLQEAfTqpBqGW4l2db36lCW1Bttr0aX+VgdBn5WK/OGjeqPtz/WNURDxD7wFfIjmG5HL9FPZzbUISDu7JaO4xbPa7kCVbQqxylKocQz68rXIKJ2q6clQMwUCHBQsjAVdAX4H2fhqNVfcUNZcg3a3vSaIgYDyx+fo9Xi7nuVC5i2zlS2YXYqrSKLAsn/HJriry8NpPRBHOvmG/LpX97l5CX2ridfvgnkOF80Jao32fEqEPlZDc1SbJPi+m688oUOPsbLs730rv0IUhW9PuV6kyp5tgeEk5D0HtcvNhrwDlXOsaLSfey9iP1X00rCt4Ax82Anzo3e1AcCI021i5dmo2V9ssXvQpwr3UDBCM8mxrE+llaRGiA8p/5VjiXm4SXb3R/wZDe110KQRrWyeOy/wEJdju7/cUoUCJjEjT8WB/1whUynJZNKFqbrjLYWcbxGRaYXQarpxyP284RBzHQS5KU5qN54KyLTtb5pQ+KsM1gLw/jn+xHnWnYIBSFYCezwZXh+Or0qi8mjz+z9+CXOIZ+oboII2iH4szyTE/+etUwBQE9GRTYpqnHQp8VNWazveSjibayc+BCiepSm6tn6PHTbo8choG9jHrp+IjdeIEmgdn+ZeN/KMkDE08qSoVaS+DvuHD4QoQ9cnYdexG9IYQNArf7yKjz7rjNc8zspGWR4IWm4yufEIaC/pXFzB55FZ/3KAgkeLadt3Jp477YegnRg5C6raUFfVCHdpiAUeJ+Th6i5flUShKZ7zzMxqhK3OwrC+os+j1/StsF42w8B4wdajos67u35MVhG+J7EvehWYQTprzvaJI2fs3KeNRMCBnbMRz0vn9WKwhQAWoCidkR4tlX4duExQURTs/QTa0UtjBsviALj0/joth9zHBOKHknmJ3+zmLh/+snnI8iSW5LmY/9YZl31FhAwdM61+Ijarp8uGXZQFESpZ/M7E/+OMqqyaQjSk15T3l876nH2zQChync1PihrQMPs1Pvnl4u7VlnN3vKfk4aL/vsoFoyH7nrykMj0qrQUAlrfeystaLnfrDNYP4pfF/LtS2dW5W88zi+Rlu1WzxGEaceEtIqYhA61EkuDQIw0UU61IFpu6C/x+o8WjkV1TRyU5C4tz6opv/PVSNPrh4NAFqwlpvhcARh6WTP1fH0tiOjWHTav176LL1lc+Oeo2l5UqJRSQbffn5qlVe9YbnlH0vgv/8FAmJFm2kWxGBpmpdJKojgINB+liXqmEVHx3K4n717q9FdTJeonv8vs7w1EIinCvPeJH3Kr/F01lk9O3+/hvxBp3fPykSRMHR5hel5xiJUk0bPCMND8rMbKqVZEVHzgDxpqpfo//ZfZQ1PtvLF83Hh+eOE9dNjZelw/H3aEmxvzL+6btO98cH28gUBtAHwaEr6tuJ5RU8RhIJY9zAdpBnhSWD3F9wQRaPzdNxVH/R/+v4eCRR+/jGxj/8UTLkCo1t8/PkE8kV8BUSkQrJrnrCTXbWt0zBEFxgahnJaeQA61kg5CjAJB9AQaycdHlWfRX+a7Eaxhg+BNYCxqtbz/WDCoP/GKA97hn5Bk3QbTvb8IIlwbAGYVw6ANP9MDBq1YfDej3ZwMk6PaGndJAYCFcD2fM4+g7jECB9E43ME+HF7fx29aSeyOI+TAvQhuRlVeCgjRSUh3uuRV7g9p6ndm1JUJzJADIwg69P8E+Bbr6ZBQ2TExkRvLqMj2c18oY32s2/m93mhzwbUQeBI3NuAVhHSH9y9UkBDRjgg2ANzlo/u9ghC2bqlffZMnjMCVt/5oe3Jch0RDreSL2wkRGKJRWmJHcGP5eNA7MtYvTYpq2i23eN7vvHgSO2YDkMdE6J6nH/KLE+yNY+AQMRj4+7UbzQ+/4NPuuJhvqeF2pv8z8HVN1NOMmnz2DDtBUEZf6+UDAb/1K3gkQLQ+vrwkml6R1ewuvebF79X14O51+9rb3MG/xO7nLtPv6e929DzzuTaq2VvKrCkvWZgiLoZQoYwOjFQt8Mf6GDR6wYqZPiXD9poed/ifQx6PWYmQzYL7mQ5CioZ8YXe+gbKqrVYi+FvMkWXKum5OWUe5P3ZLkvDBDooYUrnK4PyflWHTWf7tA/znKhYA;" vertex="1" parent="1">
          <mxGeometry x="610" y="422" width="37" height="30" as="geometry" />
        </mxCell>
        <mxCell id="I_3cgifyDoqQIbiuhMUD-15" value="" style="strokeColor=#dddddd;shadow=1;strokeWidth=1;rounded=1;absoluteArcSize=1;arcSize=2;" vertex="1" parent="1">
          <mxGeometry x="990" y="405" width="70" height="60" as="geometry" />
        </mxCell>
        <mxCell id="I_3cgifyDoqQIbiuhMUD-16" value="" style="shape=image;imageAspect=0;aspect=fixed;verticalLabelPosition=bottom;verticalAlign=top;image=https://platform.theverge.com/wp-content/uploads/sites/2/2025/02/openai-old-logo.png?quality=90&amp;strip=all&amp;crop=7.8125%2C0%2C84.375%2C100&amp;w=2400;" vertex="1" parent="1">
          <mxGeometry x="995.11" y="415" width="59.77" height="40" as="geometry" />
        </mxCell>
        <mxCell id="I_3cgifyDoqQIbiuhMUD-19" value="" style="strokeColor=#dddddd;shadow=1;strokeWidth=1;rounded=1;absoluteArcSize=1;arcSize=2;" vertex="1" parent="1">
          <mxGeometry x="565" y="520" width="170" height="60" as="geometry" />
        </mxCell>
        <mxCell id="I_3cgifyDoqQIbiuhMUD-20" value="&lt;div&gt;&lt;font color=&quot;#000000&quot;&gt;Persistance Layer&lt;br&gt;&lt;/font&gt;&lt;/div&gt;PostGreSQL" style="editableCssRules=.*;html=1;fontColor=#999999;shape=image;verticalLabelPosition=middle;verticalAlign=middle;labelPosition=right;align=left;spacingLeft=20;part=1;points=[];imageAspect=0;image=https://upload.wikimedia.org/wikipedia/commons/thumb/2/29/Postgresql_elephant.svg/640px-Postgresql_elephant.svg.png;" vertex="1" parent="I_3cgifyDoqQIbiuhMUD-19">
          <mxGeometry width="30" height="31" relative="1" as="geometry">
            <mxPoint x="15" y="15" as="offset" />
          </mxGeometry>
        </mxCell>
      </root>
    </mxGraphModel>
  </diagram>
</mxfile>
